<?xml version="1.0" standalone="no"?>
<!DOCTYPE svg PUBLIC "-//W3C//DTD SVG 20010904//EN"
 "http://www.w3.org/TR/2001/REC-SVG-20010904/DTD/svg10.dtd">
<svg version="1.0" xmlns="http://www.w3.org/2000/svg"
 width="2000.000000pt" height="2000.000000pt" viewBox="0 0 2000.000000 2000.000000"
 preserveAspectRatio="xMidYMid meet">
<metadata>
Created by potrace 1.15, written by Peter Selinger 2001-2017
</metadata>
<g transform="translate(0.000000,2000.000000) scale(0.100000,-0.100000)"
fill="#000000" stroke="none">
<path d="M9804 15465 c-46 -27 -80 -83 -115 -190 -23 -69 -23 -79 -31 -700 -5
-346 -12 -800 -16 -1009 l-7 -378 -95 -24 c-109 -28 -283 -84 -277 -90 2 -2
30 5 63 17 85 29 265 79 283 78 9 0 -38 -15 -104 -34 -235 -65 -475 -165 -660
-275 -49 -29 -99 -54 -110 -55 -14 -1 -100 78 -285 261 -172 171 -278 268
-302 279 -48 19 -91 19 -131 -1 -18 -9 -170 -154 -339 -322 -272 -271 -339
-342 -296 -316 7 4 8 3 4 -5 -4 -6 -12 -9 -17 -6 -27 17 -39 -108 -15 -153 8
-15 133 -144 278 -287 l263 -260 -260 265 -260 265 261 -259 c144 -142 261
-265 260 -272 -1 -7 -5 -17 -9 -20 -12 -12 -8 -26 6 -18 7 4 9 3 4 -2 -5 -5
-14 -9 -19 -9 -6 0 -13 -6 -16 -14 -3 -9 0 -11 8 -6 9 5 11 4 6 -4 -4 -6 -11
-9 -16 -6 -12 8 -103 -162 -94 -176 4 -8 3 -9 -5 -5 -20 13 -151 -292 -206
-480 -25 -90 -31 -125 -14 -89 8 17 9 17 4 -5 -2 -14 -5 -32 -6 -40 0 -10 -3
-8 -8 5 -7 16 -11 9 -20 -34 -6 -30 -19 -60 -29 -67 -13 -11 -98 -13 -397 -12
-217 0 -365 4 -345 9 33 7 32 7 -5 2 -22 -3 -335 -8 -695 -12 l-655 -6 -80
-27 c-98 -33 -169 -77 -189 -117 -14 -26 -16 -87 -16 -420 l0 -390 32 -36 c58
-66 171 -110 323 -125 59 -5 491 -8 1050 -6 523 1 788 0 590 -3 l-360 -6 388
-3 c364 -2 387 -3 387 -20 0 -28 66 -252 106 -359 57 -154 161 -366 175 -357
8 4 9 3 5 -5 -9 -14 52 -123 64 -116 5 3 12 0 16 -6 5 -8 3 -9 -6 -4 -8 5 -11
3 -8 -6 3 -8 11 -14 19 -14 9 0 14 -12 14 -37 1 -36 -11 -49 -255 -290 l-255
-253 255 260 255 260 -263 -260 c-145 -143 -272 -277 -283 -297 -24 -47 -24
-99 0 -146 25 -48 627 -647 664 -661 40 -15 94 -14 131 4 17 8 150 135 296
282 l265 268 -270 -267 c-148 -147 -283 -272 -298 -277 -40 -15 -94 -14 -131
4 -17 8 -166 151 -331 317 l-300 303 300 -297 c165 -163 314 -303 332 -312 37
-18 89 -21 130 -5 15 5 147 129 293 273 307 305 280 291 416 213 201 -116 438
-214 662 -275 74 -20 130 -38 125 -39 -16 -6 -259 65 -365 106 -136 51 -154
57 -88 25 69 -33 289 -106 393 -130 l77 -18 0 -373 c0 -304 3 -380 15 -410 12
-32 15 -146 18 -683 3 -412 8 -661 15 -690 29 -123 75 -209 131 -247 34 -23
35 -23 414 -23 l380 0 42 24 c47 28 81 84 116 191 23 70 23 73 30 870 4 440 7
922 8 1072 l1 272 33 11 c29 9 29 9 4 6 -52 -7 -13 11 63 29 227 54 565 198
758 323 12 8 22 12 22 8 0 -3 -36 -27 -80 -52 -44 -26 -80 -48 -80 -51 0 -6
60 27 142 78 44 28 87 48 98 46 12 -2 137 -119 278 -259 216 -215 264 -258
300 -269 86 -25 95 -19 432 314 l305 302 -305 -307 c-260 -261 -311 -308 -347
-319 -86 -25 -99 -16 -393 274 l-265 262 265 -267 c224 -225 272 -268 308
-279 87 -26 93 -21 449 334 284 284 323 327 333 365 9 34 8 53 -2 85 -7 23
-18 42 -25 42 -6 0 -15 4 -20 9 -5 5 -3 6 5 2 40 -23 -16 37 -255 274 l-268
265 260 -265 260 -265 -262 259 -262 260 15 27 c17 34 18 43 2 33 -7 -4 -8 -3
-4 5 4 6 11 9 16 6 5 -3 14 3 19 14 14 26 14 34 -1 25 -7 -4 -8 -3 -4 5 4 6
11 9 16 6 12 -8 53 73 44 87 -4 7 -3 8 5 4 30 -19 200 412 261 661 l11 43 377
5 c207 2 681 8 1052 12 l675 8 77 26 c95 33 160 70 187 108 20 28 21 41 21
425 l0 395 -32 36 c-60 69 -172 110 -337 126 -73 7 -320 10 -671 7 -305 -1
-568 0 -585 4 -26 7 -27 6 -5 -2 21 -8 19 -9 -15 -5 -22 3 -197 6 -390 7
l-350 3 365 5 365 5 -366 3 -367 2 -7 37 c-15 79 -78 283 -122 393 -59 149
-171 372 -183 365 -5 -3 -12 0 -16 6 -4 8 -3 9 4 5 15 -9 15 -1 1 25 -5 11
-15 16 -21 13 -7 -4 -8 -3 -4 4 9 14 -12 55 -24 47 -5 -3 -12 0 -16 6 -4 8 -3
9 4 5 14 -9 15 -1 3 23 -8 14 35 62 257 282 l267 264 -265 -270 -265 -270 268
265 c148 146 277 282 288 302 10 21 19 51 19 68 0 37 -26 104 -38 96 -5 -3
-145 133 -313 301 -167 168 -318 311 -336 319 -44 19 -87 18 -131 -5 -20 -11
-151 -134 -290 -274 -292 -293 -266 -279 -395 -203 -221 131 -535 260 -750
307 -32 7 -60 16 -63 20 -2 4 12 3 31 -2 20 -6 41 -9 47 -7 6 2 -14 10 -45 17
l-57 12 -1 272 c-1 150 -4 594 -9 987 -8 784 -9 786 -70 915 -22 46 -44 75
-72 95 l-41 30 -381 0 -381 0 -41 -25z m701 -3664 c106 -23 246 -71 330 -113
72 -37 209 -123 225 -143 6 -8 -26 11 -71 41 -150 100 -307 167 -484 205 -105
22 -321 34 -415 22 -50 -6 -21 -8 125 -9 155 0 208 -4 285 -21 111 -25 250
-73 335 -115 73 -37 209 -123 225 -143 15 -18 34 -20 24 -2 -13 19 87 -67 131
-115 22 -23 28 -32 13 -19 -42 37 -33 10 9 -30 20 -18 31 -26 24 -16 -21 27
-7 20 20 -10 13 -15 16 -21 7 -14 -26 19 -22 -2 4 -25 12 -10 18 -13 14 -6
-10 18 -1 15 15 -5 12 -14 12 -16 0 -9 -9 6 -12 4 -9 -5 3 -8 10 -14 16 -14 5
0 14 -4 19 -9 5 -5 2 -6 -6 -1 -9 5 -12 3 -9 -6 3 -8 10 -14 16 -14 5 0 14 -4
19 -9 5 -5 2 -6 -6 -1 -9 5 -12 3 -9 -6 3 -8 10 -14 16 -14 5 0 14 -4 19 -9 5
-5 3 -6 -4 -2 -19 10 -18 8 36 -95 98 -186 141 -356 151 -604 l7 -170 1 135
c2 134 -12 258 -42 369 -8 30 -11 50 -7 45 12 -13 37 -124 52 -223 15 -104 6
-363 -15 -441 l-15 -55 5 50 c3 42 1 36 -15 -31 -11 -44 -38 -129 -60 -189
-43 -114 -47 -130 -30 -105 9 13 10 13 6 0 -2 -8 -10 -15 -18 -15 -8 0 -14
-10 -13 -22 0 -12 -3 -20 -7 -17 -4 2 -19 -17 -33 -42 -30 -53 -31 -58 -13
-48 7 4 9 3 4 -2 -5 -5 -14 -9 -20 -9 -5 0 -12 -6 -15 -14 -3 -9 0 -11 9 -6 8
5 11 4 6 -1 -5 -5 -14 -9 -20 -9 -5 0 -12 -6 -15 -14 -3 -8 0 -11 7 -7 17 11
13 0 -6 -15 -15 -12 -16 -12 -8 1 8 13 7 13 -8 1 -18 -14 -24 -36 -7 -26 18
11 11 -1 -12 -21 -22 -19 -23 -19 -8 1 11 15 7 14 -13 -4 -26 -23 -38 -49 -17
-36 22 13 7 -3 -61 -70 -40 -39 -69 -64 -65 -57 12 21 -2 13 -64 -36 -32 -27
-89 -65 -125 -86 -36 -21 -65 -41 -65 -43 0 -10 103 53 171 104 41 31 66 46
55 35 -38 -43 -261 -184 -242 -153 4 6 -15 1 -41 -10 -26 -12 -88 -36 -138
-55 -49 -18 -85 -33 -78 -34 13 0 138 45 206 74 20 9 37 14 37 12 0 -7 -84
-43 -175 -75 -110 -39 -219 -60 -366 -70 -214 -15 -451 31 -656 129 -57 27
-103 51 -103 54 0 3 46 -17 103 -44 119 -57 244 -95 377 -115 100 -16 304 -19
380 -6 25 4 -27 5 -115 3 -251 -6 -439 31 -641 127 -95 46 -245 139 -259 161
-3 5 -11 10 -16 10 -6 0 -7 -6 -3 -12 11 -18 -105 84 -136 118 l-25 29 33 -29
c51 -47 37 -15 -15 34 -26 25 -39 35 -29 23 27 -32 15 -29 -15 4 -13 14 -18
23 -11 19 18 -11 15 9 -5 25 -15 12 -16 12 -8 -1 8 -13 7 -13 -8 -1 -18 15
-23 26 -7 16 17 -10 11 12 -7 26 -15 12 -16 12 -8 -1 8 -13 7 -13 -8 -1 -19
15 -23 26 -6 15 7 -4 10 -1 7 7 -3 8 -10 14 -15 14 -6 0 -15 4 -20 9 -5 5 -3
6 5 2 17 -10 15 2 -9 40 -11 19 -26 31 -31 28 -7 -4 -8 -2 -4 4 4 6 -6 37 -23
69 -59 117 -109 287 -131 443 l-9 65 4 -70 c3 -38 13 -105 24 -148 10 -43 15
-75 10 -70 -15 16 -50 217 -56 327 -6 115 6 250 33 369 24 102 26 75 4 -33
-11 -52 -19 -113 -19 -135 1 -29 4 -21 10 30 15 112 46 228 91 343 24 59 42
113 42 119 -1 7 2 10 7 8 4 -3 15 8 24 24 18 36 19 44 3 35 -8 -4 -10 -3 -5 2
5 5 14 9 19 9 6 0 13 6 16 14 3 9 0 11 -9 6 -8 -5 -11 -4 -6 1 5 5 14 9 19 9
6 0 13 6 16 14 3 9 0 11 -9 6 -8 -5 -11 -4 -6 1 5 5 14 9 20 9 5 0 12 6 15 14
3 9 0 11 -9 6 -8 -5 -11 -5 -7 -1 3 4 8 6 11 4 6 -5 37 23 37 34 0 6 -7 5 -15
-2 -24 -20 -18 -5 7 16 13 12 18 13 13 4 -8 -13 -7 -13 8 -1 18 14 24 36 7 26
-21 -13 -9 2 32 40 l43 40 -35 -40 c-19 -22 8 1 60 51 52 49 116 104 143 122
26 18 47 35 47 38 0 9 -87 -55 -146 -108 -50 -44 -53 -45 -19 -10 46 49 152
128 166 124 6 -1 40 15 77 37 85 50 218 105 330 136 48 13 80 24 71 24 -30 2
-184 -47 -277 -88 -51 -22 -90 -36 -87 -32 2 5 51 27 107 51 113 47 256 86
363 100 107 14 346 4 450 -19z"/>
<path d="M12320 13340 c-19 -10 -152 -137 -295 -282 l-260 -263 265 262 c146
143 279 268 297 277 37 18 80 20 120 6 15 -6 169 -151 341 -323 171 -171 312
-307 312 -302 0 6 -136 147 -303 312 -198 198 -315 307 -339 318 -49 20 -95
18 -138 -5z"/>
</g>
</svg>
